<svg width="102" height="22" viewBox="0 0 102 22" fill="none" xmlns="http://www.w3.org/2000/svg">
<path id="Union" fill-rule="evenodd" clip-rule="evenodd" d="M97.4311 0V3.14296L99.9458 3.14296V5.343H97.4311V13.5148H101.517V15.7148L95.231 15.7148V13.5148H95.2311V5.343H93.6599V3.14296L95.2311 3.14296V0H97.4311ZM11.9343 6.67398C12.0272 6.86462 12.1097 7.05765 12.1819 7.25243L0.940826 12.735C0.83177 12.5583 0.730424 12.3744 0.637445 12.1838C-0.884051 9.06427 0.411411 5.30199 3.53094 3.78049C6.65047 2.259 10.4128 3.55446 11.9343 6.67398ZM2.20704 9.67024C2.11322 8.0736 2.96786 6.50235 4.49516 5.75743C6.02246 5.01252 7.7868 5.30642 8.98721 6.36334L2.20704 9.67024ZM9.04077 15.0773C11.357 13.9476 12.6676 11.5826 12.5662 9.16257L10.282 10.2767C10.0292 11.464 9.25216 12.527 8.07655 13.1003C6.90093 13.6737 5.58488 13.6316 4.49366 13.0998L2.20941 14.2139C4.054 15.7837 6.72456 16.207 9.04077 15.0773ZM44.935 6.67398C45.028 6.86462 45.1104 7.05765 45.1826 7.25243L33.9416 12.735C33.8325 12.5583 33.7312 12.3744 33.6382 12.1838C32.1167 9.06427 33.4121 5.30199 36.5317 3.78049C39.6512 2.259 43.4135 3.55446 44.935 6.67398ZM35.2078 9.67024C35.114 8.0736 35.9686 6.50235 37.4959 5.75743C39.0232 5.01252 40.7875 5.30642 41.9879 6.36334L35.2078 9.67024ZM42.0415 15.0773C44.3577 13.9476 45.6683 11.5826 45.567 9.16257L43.2827 10.2767C43.03 11.464 42.2529 12.527 41.0773 13.1003C39.9017 13.6737 38.5856 13.6316 37.4944 13.0998L35.2101 14.2139C37.0547 15.7837 39.7253 16.207 42.0415 15.0773ZM80.698 7.25243C80.6258 7.05765 80.5434 6.86462 80.4504 6.67398C78.9289 3.55446 75.1666 2.259 72.0471 3.78049C68.9275 5.30199 67.6321 9.06427 69.1535 12.1838C69.2465 12.3744 69.3479 12.5583 69.4569 12.735L80.698 7.25243ZM73.0113 5.75743C71.484 6.50235 70.6293 8.0736 70.7232 9.67024L77.5033 6.36334C76.3029 5.30642 74.5386 5.01252 73.0113 5.75743ZM81.0823 9.16257C81.1837 11.5826 79.8731 13.9476 77.5569 15.0773C75.2407 16.207 72.5701 15.7837 70.7255 14.2139L73.0098 13.0998C74.101 13.6316 75.417 13.6737 76.5927 13.1003C77.7683 12.527 78.5453 11.464 78.7981 10.2767L81.0823 9.16257ZM14.4575 15.7144L14.4575 4.39991H16.6576L16.6576 5.65708C17.2861 4.7142 18.4794 4.39991 19.8005 4.39991C21.1216 4.39991 22.3148 5.02849 22.9434 5.97137C23.572 5.02849 24.5149 4.39991 26.4006 4.39991C29.0721 4.39991 31.115 6.12852 31.115 8.48571V15.7144H28.915V9.11429C28.915 7.47358 27.8283 6.44281 26.4006 6.44281C24.9304 6.44281 23.8863 7.55881 23.8863 9.11429L23.8863 15.7144H21.6862V9.11429C21.6862 7.47358 20.4637 6.44281 19.0148 6.44281C17.5445 6.44281 16.6576 7.47092 16.6576 9.0264L16.6576 15.7144H14.4575ZM82.9736 4.39992V15.7158H85.1737V9.34687C85.1737 7.74649 86.235 6.59996 87.688 6.59996C89.1199 6.59996 90.1753 7.66226 90.1753 9.34687V15.7158H92.4024V8.84149C92.4024 6.5041 90.7178 4.39991 88.3172 4.39991C86.8432 4.39991 85.7422 4.7516 85.1737 5.65708V4.39992H82.9736ZM66.5568 16.9712C66.1048 19.8213 63.6365 22 60.6592 22C57.682 22 55.2137 19.8213 54.7617 16.9712H57.0061C57.4247 18.598 58.9014 19.8 60.6589 19.8C62.4163 19.8 63.893 18.598 64.3116 16.9712H66.5568ZM54.6878 15.9852L54.6877 16.0285L54.6878 16.0717V15.9852ZM49.6585 5.65732L54.0586 3.45722V5.65732L49.6585 7.85737V15.7145H47.4584V3.77144L49.6585 3.77144V5.65732ZM66.6299 9.70185V3.14235H64.4299V5.1119C63.4016 4.27335 62.0888 3.77051 60.6585 3.77051C57.3605 3.77051 54.687 6.44406 54.687 9.74206C54.687 13.0401 57.3605 15.7136 60.6585 15.7136C63.851 15.7136 66.4583 13.2085 66.6219 10.0568H66.6299V9.78227L66.6301 9.74206L66.6299 9.70185ZM64.4304 9.74282C64.4304 11.8258 62.7418 13.5143 60.6589 13.5143C58.5759 13.5143 56.8874 11.8258 56.8874 9.74282C56.8874 7.65987 58.5759 5.97131 60.6589 5.97131C62.7418 5.97131 64.4304 7.65987 64.4304 9.74282Z" fill="#737780"/>
</svg>
